# ProBuilder 4.4.0
# https://unity3d.com/unity/features/worldbuilding/probuilder
# 3/19/2021 8:42:28 AM

mtllib ./Belt.mtl
o Belt

g Belt
v -0.205851 0 0
v -0.1985287 -0.01767766 -1.053671E-09
v -0.180851 -0.03098832 -2.297111E-09
v -0.1631733 -0.01767766 -1.053671E-09
v -0.1631733 0.02642401 2.218664E-09
v -0.180851 0.03374634 2.625893E-09
v -0.1985287 0.02642401 2.218665E-09
v -0.1498854 -1.056035E-08 0.1237429
v -0.1447077 -0.01767768 0.1185653
v -0.1322078 -0.03098833 0.1060653
v -0.1197077 -0.01767767 0.09356528
v -0.1197077 0.026424 0.09356528
v -0.1322078 0.03374633 0.1060653
v -0.1447077 0.02642401 0.1185653
v -3.72529E-08 -1.386568E-08 0.1663137
v -3.72529E-08 -0.023666 0.1589914
v -3.72529E-08 -0.03098833 0.1413137
v -2.980232E-08 -0.023666 0.1236361
v -2.980232E-08 0.026424 0.1236361
v -3.72529E-08 0.03374633 0.1413137
v -3.72529E-08 0.026424 0.1589914
v 0.175058 -9.891046E-09 0.1181284
v 0.1698804 -0.023666 0.1129507
v 0.1573804 -0.03098833 0.1004507
v 0.1448804 -0.023666 0.08795072
v 0.1448804 0.026424 0.08795072
v 0.1573804 0.03374633 0.1004507
v 0.1698804 0.02642401 0.1129507
v 0.2043474 5.210802E-16 -8.742277E-09
v 0.1970251 -0.02366599 -9.806126E-09
v 0.1793474 -0.03098832 -8.81637E-09
v 0.1616697 -0.02366599 -6.546496E-09
v 0.1616697 0.02642401 -2.90361E-09
v 0.1793474 0.03374634 -3.893366E-09
v 0.1970251 0.02642401 -6.163239E-09
v 0.1750581 4.214683E-09 -0.07071067
v 0.1698804 -0.02366599 -0.065533
v 0.1573804 -0.03098832 -0.05303301
v 0.1448804 -0.02366599 -0.04053301
v 0.1448804 0.02642401 -0.04053301
v 0.1573804 0.03374635 -0.05303301
v 0.1698804 0.02642402 -0.065533
v -3.72529E-08 1.266178E-08 -0.1562147
v -3.72529E-08 -0.02366598 -0.1488924
v -3.72529E-08 -0.03098831 -0.1312147
v -2.980232E-08 -0.02366598 -0.113537
v -2.980232E-08 0.02642402 -0.113537
v -3.72529E-08 0.03374635 -0.1312147
v -3.72529E-08 0.02642403 -0.1488924
v -0.1765617 4.214684E-09 -0.07071068
v -0.171384 -0.02366599 -0.06553301
v -0.158884 -0.03098832 -0.05303302
v -0.146384 -0.02366599 -0.04053302
v -0.146384 0.02642401 -0.04053302
v -0.158884 0.03374635 -0.05303302
v -0.171384 0.02642402 -0.06553302
v -0.05527866 1.650784E-08 -0.1384778
v -0.05123098 1.590994E-08 -0.1334623
v -0.041459 1.566228E-08 -0.1313848
v -0.03168702 1.590994E-08 -0.1334623
v -0.02763934 1.650784E-08 -0.1384778
v -0.03168702 1.710574E-08 -0.1434934
v -0.041459 1.73534E-08 -0.1455709
v -0.05123098 1.710574E-08 -0.1434934
v -0.03908791 0.03908794 -0.1384778
v -0.03622577 0.03622579 -0.1334623
v -0.02931594 0.02931596 -0.1313848
v -0.02240611 0.02240613 -0.1334623
v -0.01954396 0.01954398 -0.1384778
v -0.02240611 0.02240613 -0.1434934
v -0.02931594 0.02931596 -0.1455709
v -0.03622577 0.0362258 -0.1434934
v -4.118581E-09 0.05527868 -0.1384778
v -4.118581E-09 0.051231 -0.1334623
v -4.118581E-09 0.04145902 -0.1313848
v 0 0.03168704 -0.1334623
v 0 0.02763936 -0.1384778
v 0 0.03168704 -0.1434934
v -4.118581E-09 0.04145902 -0.1455709
v -4.118581E-09 0.051231 -0.1434934
v 0.03908791 0.03908794 -0.1384778
v 0.03622577 0.03622579 -0.1334623
v 0.02931594 0.02931596 -0.1313848
v 0.0224061 0.02240613 -0.1334623
v 0.01954396 0.01954398 -0.1384778
v 0.0224061 0.02240613 -0.1434934
v 0.02931594 0.02931596 -0.1455709
v 0.03622577 0.03622579 -0.1434934
v 0.05527866 1.167523E-08 -0.1384778
v 0.05123098 1.143119E-08 -0.1334623
v 0.041459 1.203782E-08 -0.1313848
v 0.03168702 1.313977E-08 -0.1334623
v 0.02763934 1.409153E-08 -0.1384778
v 0.03168702 1.433557E-08 -0.1434934
v 0.041459 1.372894E-08 -0.1455709
v 0.05123098 1.262698E-08 -0.1434934
v 0.03908793 -0.0390879 -0.1384778
v 0.03622577 -0.03622575 -0.1334623
v 0.02931595 -0.02931592 -0.1313848
v 0.02240611 -0.02240609 -0.1334623
v 0.01954397 -0.01954395 -0.1384778
v 0.02240611 -0.02240609 -0.1434934
v 0.02931595 -0.02931592 -0.1455709
v 0.03622577 -0.03622575 -0.1434934
v -4.118581E-09 -0.05527865 -0.1384778
v -4.118581E-09 -0.05123096 -0.1334623
v -4.118581E-09 -0.04145899 -0.1313848
v 0 -0.03168701 -0.1334623
v 0 -0.02763932 -0.1384778
v 0 -0.03168701 -0.1434934
v -4.118581E-09 -0.04145899 -0.1455709
v -4.118581E-09 -0.05123096 -0.1434934
v -0.03908791 -0.03908791 -0.1384778
v -0.03622577 -0.03622576 -0.1334623
v -0.02931594 -0.02931593 -0.1313848
v -0.02240611 -0.0224061 -0.1334623
v -0.01954396 -0.01954395 -0.1384778
v -0.02240611 -0.0224061 -0.1434934
v -0.02931594 -0.02931593 -0.1455709
v -0.03622577 -0.03622576 -0.1434934

vt 0.2533328 0.2702217
vt 0.2425912 0.2842616
vt 0.2475173 0.2657723
vt 0.2334774 0.2550308
vt 0.2194375 0.2442892
vt 0.2872281 0.2961541
vt 0.2731882 0.2854125
vt 0.2591483 0.2746709
vt 0.2640744 0.2561817
vt 0.1971732 0.2272554
vt 0.1905438 0.2444414
vt 0.2657786 0.1972309
vt 0.2482555 0.1995632
vt 0.2307323 0.2018955
vt 0.3251917 0.2741638
vt 0.3228594 0.2566407
vt 0.3205271 0.2391175
vt 0.2120269 0.2163616
vt 0.2300707 0.2524244
vt 0.215217 0.2633182
vt 0.2367001 0.2352384
vt 0.1739111 0.2094582
vt 0.1631695 0.2234981
vt 0.2302252 0.1358521
vt 0.2194836 0.149892
vt 0.2087421 0.1639319
vt 0.3675855 0.2854587
vt 0.378327 0.2714188
vt 0.3890686 0.2573789
vt 0.1846527 0.1954183
vt 0.1177515 0.166492
vt 0.1111221 0.183678
vt 0.1616838 0.1175907
vt 0.164016 0.1351139
vt 0.1663483 0.152637
vt 0.3895757 0.3234223
vt 0.4070989 0.32109
vt 0.424622 0.3187577
vt 0.1326052 0.1555983
vt 0.3094924 0.3131879
vt 0.2946387 0.3240817
vt 0.3161218 0.2960019
vt 0.1003049 0.1531442
vt 0.1143448 0.1638857
vt 0.1283847 0.1746272
vt 0.3782809 0.3658161
vt 0.3923208 0.3765576
vt 0.4063607 0.3872992
vt 0.08204356 0.2216856
vt 0.09956668 0.2193533
vt 0.1170898 0.217021
vt 0.3403173 0.3878063
vt 0.3426495 0.4053295
vt 0.3449818 0.4228526
vt 0.3889141 0.3739513
vt 0.3740604 0.3848451
vt 0.3955435 0.3567653
vt 0.3327545 0.3309851
vt 0.3220129 0.345025
vt 0.117597 0.2830644
vt 0.1283385 0.2690245
vt 0.1390801 0.2549846
vt 0.2979235 0.3765115
vt 0.2871819 0.3905513
vt 0.2764404 0.4045912
vt 0.3434961 0.3169452
vt 0.2765949 0.2880189
vt 0.2699655 0.3052049
vt 0.1861384 0.3013258
vt 0.1838061 0.2838026
vt 0.1814738 0.2662795
vt 0.2759332 0.3385479
vt 0.2584101 0.3408802
vt 0.2408869 0.3432124
vt 0.2914486 0.2771251
vt 0.2048592 0.305015
vt 0.2592661 0.2339017
vt 0.2446415 0.3354514
vt 0.2990484 0.2643381
vt 0.2543345 0.2036188
vt 0.37284 0.2942842
vt 0.2238981 0.2434011
vt 0.3424037 0.3340665
vt 0.2555368 0.326233
vt 0.1611478 0.2464786
vt 0.2859732 0.2864507
vt 0.1879455 0.2114523
vt 0.2088485 0.2806299
vt 0.2715371 0.1986918
vt 0.2438748 0.3074276
vt 0.3065634 0.2254895
vt 0.2262474 0.3165718
vt 0.2481499 0.2780887
vt 0.2612737 0.3433695
vt 0.2879322 0.3085251
vt 0.3341912 0.3384317
vt 0.2042745 0.2390359
vt 0.3646276 0.2986493
vt 0.2347109 0.1992536
vt 0.1741 0.199662
vt 0.3029492 0.298241
vt 0.1436637 0.2394443
vt 0.2725128 0.3380233
vt 0.2851742 0.3079497
vt 0.2585157 0.3427941
vt 0.2453919 0.2775133
vt 0.2187334 0.3123576
vt 0.751554 0.5319989
vt 0.751554 0.544476
vt 0.7454428 0.5319989
vt 0.7306891 0.5319989
vt 0.7159355 0.5319989
vt 0.751554 0.5195218
vt 0.7871724 0.5319989
vt 0.7724188 0.5319989
vt 0.7576651 0.5319989
vt 0.6925392 0.5319989
vt 0.6968605 0.544476
vt 0.722788 0.485745
vt 0.7123556 0.4945676
vt 0.7019231 0.5033903
vt 0.7853826 0.544476
vt 0.7810614 0.5319989
vt 0.7853826 0.5195218
vt 0.8011848 0.5033903
vt 0.7907524 0.4945676
vt 0.7803199 0.485745
vt 0.6968605 0.5195218
vt 0.7271093 0.5319989
vt 0.722788 0.544476
vt 0.8011848 0.544476
vt 0.8055061 0.5319989
vt 0.8011848 0.5195218
vt 0.722788 0.5195218
vt 0.6680945 0.5319989
vt 0.6680945 0.544476
vt 0.6680945 0.466586
vt 0.6680945 0.4790631
vt 0.6680945 0.4915401
vt 0.8350134 0.544476
vt 0.8350134 0.5319989
vt 0.8350134 0.5195218
vt 0.8350134 0.4915401
vt 0.8350134 0.4790631
vt 0.8350134 0.466586
vt 0.6680945 0.5195218
vt 0.6090797 0.5319989
vt 0.6134009 0.544476
vt 0.6134009 0.485745
vt 0.6238334 0.4945676
vt 0.6342658 0.5033903
vt 0.8688421 0.544476
vt 0.8645208 0.5319989
vt 0.8688421 0.5195218
vt 0.8688421 0.5033903
vt 0.8792745 0.4945676
vt 0.889707 0.485745
vt 0.6134009 0.5195218
vt 0.8105687 0.5319989
vt 0.8062474 0.544476
vt 0.7177253 0.544476
vt 0.7220466 0.5319989
vt 0.7177253 0.5195218
vt 0.8062474 0.5195218
vt 0.5907462 0.5319989
vt 0.6054999 0.5319989
vt 0.6202536 0.5319989
vt 0.8828543 0.5319989
vt 0.897608 0.5319989
vt 0.9123617 0.5319989
vt 0.6134009 0.5782528
vt 0.6238334 0.5694301
vt 0.6342658 0.5606075
vt 0.8688421 0.5606075
vt 0.8792745 0.5694301
vt 0.889707 0.5782528
vt 0.8940282 0.5319989
vt 0.889707 0.544476
vt 0.6342658 0.544476
vt 0.6385871 0.5319989
vt 0.6342658 0.5195218
vt 0.889707 0.5195218
vt 0.6680945 0.5974117
vt 0.6680945 0.5849347
vt 0.6680945 0.5724576
vt 0.8350134 0.5724576
vt 0.8350134 0.5849347
vt 0.8350134 0.5974117
vt 0.7759987 0.5319989
vt 0.7803199 0.544476
vt 0.722788 0.5782528
vt 0.7123556 0.5694301
vt 0.7019231 0.5606075
vt 0.7019231 0.544476
vt 0.6976019 0.5319989
vt 0.7019231 0.5195218
vt 0.8011848 0.5606075
vt 0.7907524 0.5694301
vt 0.7803199 0.5782528
vt 0.7803199 0.5195218

vn -0.9985753 -0.04989782 0.01890761
vn -0.7697247 -0.6370253 0.04150662
vn -0.03400649 -0.9994203 0.001631751
vn 0.5975963 -0.8006978 0.04197436
vn 0.3826667 0.9238392 -0.009365958
vn -0.001332845 0.9999992 0.0003049488
vn -0.7371615 0.6755973 0.01269677
vn -0.6505556 -0.05788003 0.7572499
vn -0.5202394 -0.6096559 0.5980558
vn 0.00680173 -0.9989673 -0.04492485
vn 0.3530689 -0.8445308 -0.4026292
vn 0.2430774 0.9218736 -0.3017657
vn -0.003531131 0.9999822 0.004830878
vn -0.4766116 0.6783265 0.5592089
vn -0.004650706 -0.02551051 0.9996639
vn -0.01794867 -0.6478332 0.7615709
vn 0.004206447 -0.9995348 -0.03021042
vn -0.02592317 -0.9190532 -0.3932803
vn 0.004957664 0.9194919 -0.393078
vn -0.002657139 0.9999965 -0.0003125163
vn -0.002999646 0.6617739 0.7496976
vn 0.7164878 -0.01486838 0.6974412
vn 0.5134845 -0.6996399 0.4968277
vn -0.005778197 -0.999974 0.004329052
vn -0.262266 -0.9292557 -0.2601932
vn -0.2781878 0.9277379 -0.2488256
vn 0.004884078 0.9999842 -0.002813731
vn 0.5191168 0.6901334 0.5042161
vn 0.9970617 -0.0106966 -0.07585242
vn 0.7356301 -0.6748233 -0.05883912
vn -0.006874896 -0.9999765 -5.26331E-05
vn -0.3823438 -0.9230594 0.04212846
vn -0.3973096 0.9169498 0.03672078
vn 0.006795336 0.9999737 0.002614388
vn 0.7435512 0.6660755 -0.05894978
vn 0.7287315 -0.01662738 -0.6845978
vn 0.5343723 -0.6809876 -0.5007018
vn 0.0009719045 -0.9999964 -0.002558948
vn -0.283792 -0.9216522 0.2646121
vn -0.2817461 0.923764 0.2593827
vn -0.001418219 0.9999968 0.00215425
vn 0.541572 0.6699863 -0.5077581
vn 0.001668727 -0.01535671 -0.9998808
vn 0.000968922 -0.6905432 -0.7232907
vn 0.002219928 -0.9999976 -0.0001744371
vn -0.003816431 -0.9257864 0.378028
vn 0.002103684 0.9259009 0.3777608
vn -0.002262698 0.9999976 8.231516E-05
vn 0.001715374 0.6803971 -0.7328418
vn -0.7275785 -0.01332504 -0.685895
vn -0.5455868 -0.6880183 -0.4785039
vn -0.03462909 -0.9993994 -0.001364394
vn 0.3313625 -0.8909872 0.3103884
vn 0.2830526 0.9217849 0.2649413
vn -0.0009102868 0.9999968 -0.002419868
vn -0.5402644 0.6708425 -0.5080205
vn -0.9822629 -5.538007E-09 -0.1875091
vn -0.2391612 1.157498E-07 -0.97098
vn 0.2436326 1.156172E-07 -0.9698677
vn 0.9069179 -2.095235E-08 -0.4213075
vn 0.9238794 -2.628068E-08 0.3826838
vn 0.446294 -4.012432E-08 0.8948865
vn -0.4499916 -4.004121E-08 0.893033
vn -0.9238796 -1.71585E-08 0.3826834
vn -1 6.035581E-08 4.023722E-08
vn -0.5162926 -9.397566E-08 0.8564124
vn 3.822652E-09 -1.211206E-07 1
vn 0.5162925 -1.183256E-07 0.8564125
vn 1 -3.017792E-08 -3.597487E-15
vn 0.5162925 9.397567E-08 -0.8564125
vn -7.645303E-09 1.192093E-07 -1
vn -0.5162925 1.183256E-07 -0.8564124
vn -0.7071068 0.7071069 1.044123E-07
vn -0.3650739 0.3650739 0.8564124
vn 0.3650739 -0.3650741 0.8564124
vn 0.7071068 -0.7071069 -1.245309E-07
vn 0.3650739 -0.365074 -0.8564124
vn -0.3650739 0.3650741 -0.8564124
vn 4.023721E-08 1 1.393279E-07
vn 1.014579E-08 0.5162925 0.8564124
vn -3.246654E-08 -0.5162927 0.8564124
vn -6.035582E-08 -1 -1.192093E-07
vn -3.043738E-08 -0.5162925 -0.8564125
vn 1.623327E-08 0.5162928 -0.8564124
vn 0.7071068 0.7071069 3.819292E-09
vn 0.365074 0.3650739 0.8564124
vn -0.365074 -0.3650742 0.8564123
vn -0.7071067 -0.7071069 -6.41751E-08
vn -0.3650739 -0.365074 -0.8564124
vn 0.365074 0.3650742 -0.8564122

usemtl Belt
f 2/2/2 9/11/9 8/10/8 1/1/1
f 3/4/3 10/13/10 9/12/9 2/3/2
f 4/5/4 11/14/11 10/13/10 3/4/3
f 6/7/6 13/16/13 12/15/12 5/6/5
f 7/8/7 14/17/14 13/16/13 6/7/6
f 1/1/1 8/10/8 14/18/14 7/9/7
f 9/20/9 16/23/16 15/22/15 8/19/8
f 10/13/10 17/25/17 16/24/16 9/12/9
f 11/14/11 18/26/18 17/25/17 10/13/10
f 13/16/13 20/28/20 19/27/19 12/15/12
f 14/17/14 21/29/21 20/28/20 13/16/13
f 8/19/8 15/22/15 21/30/21 14/21/14
f 16/23/16 23/32/23 22/31/22 15/22/15
f 17/25/17 24/34/24 23/33/23 16/24/16
f 18/26/18 25/35/25 24/34/24 17/25/17
f 20/28/20 27/37/27 26/36/26 19/27/19
f 21/29/21 28/38/28 27/37/27 20/28/20
f 15/22/15 22/31/22 28/39/28 21/30/21
f 23/41/23 30/2/30 29/1/29 22/40/22
f 24/34/24 31/44/31 30/43/30 23/33/23
f 25/35/25 32/45/32 31/44/31 24/34/24
f 27/37/27 34/47/34 33/46/33 26/36/26
f 28/38/28 35/48/35 34/47/34 27/37/27
f 22/40/22 29/1/29 35/9/35 28/42/28
f 30/2/30 37/11/37 36/10/36 29/1/29
f 31/44/31 38/50/38 37/49/37 30/43/30
f 32/45/32 39/51/39 38/50/38 31/44/31
f 34/47/34 41/53/41 40/52/40 33/46/33
f 35/48/35 42/54/42 41/53/41 34/47/34
f 29/1/29 36/10/36 42/18/42 35/9/35
f 37/56/37 44/59/44 43/58/43 36/55/36
f 38/50/38 45/61/45 44/60/44 37/49/37
f 39/51/39 46/62/46 45/61/45 38/50/38
f 41/53/41 48/64/48 47/63/47 40/52/40
f 42/54/42 49/65/49 48/64/48 41/53/41
f 36/55/36 43/58/43 49/66/49 42/57/42
f 44/59/44 51/68/51 50/67/50 43/58/43
f 45/61/45 52/70/52 51/69/51 44/60/44
f 46/62/46 53/71/53 52/70/52 45/61/45
f 48/64/48 55/73/55 54/72/54 47/63/47
f 49/65/49 56/74/56 55/73/55 48/64/48
f 43/58/43 50/67/50 56/75/56 49/66/49
f 51/41/51 2/2/2 1/1/1 50/40/50
f 52/70/52 3/4/3 2/3/2 51/69/51
f 53/71/53 4/5/4 3/4/3 52/70/52
f 55/73/55 6/7/6 5/6/5 54/72/54
f 56/74/56 7/8/7 6/7/6 55/73/55
f 50/40/50 1/1/1 7/9/7 56/42/56
f 32/79/57 25/78/57 26/76/57 33/77/57
f 25/83/58 18/82/58 19/80/58 26/81/58
f 12/87/59 19/86/59 18/84/59 11/85/59
f 5/91/60 12/90/60 11/88/60 4/89/60
f 54/95/61 5/94/61 4/92/61 53/93/61
f 47/99/62 54/98/62 53/96/62 46/97/62
f 46/103/63 39/102/63 40/100/63 47/101/63
f 33/107/64 40/106/64 39/104/64 32/105/64

usemtl Belt
f 58/109/66 66/118/74 65/117/73 57/108/65
f 59/111/67 67/120/67 66/119/74 58/110/66
f 60/112/68 68/121/75 67/120/67 59/111/67
f 61/108/69 69/123/76 68/122/75 60/109/68
f 62/113/70 70/124/77 69/123/76 61/108/69
f 63/115/71 71/126/71 70/125/77 62/114/70
f 64/116/72 72/127/78 71/126/71 63/115/71
f 57/108/65 65/117/73 72/128/78 64/113/72
f 66/130/74 74/136/80 73/135/79 65/129/73
f 67/120/67 75/138/67 74/137/80 66/119/74
f 68/121/75 76/139/81 75/138/67 67/120/67
f 69/132/76 77/141/82 76/140/81 68/131/75
f 70/133/77 78/142/83 77/141/82 69/132/76
f 71/126/71 79/144/71 78/143/83 70/125/77
f 72/127/78 80/145/84 79/144/71 71/126/71
f 65/129/73 73/135/79 80/146/84 72/134/78
f 74/136/80 82/148/86 81/147/85 73/135/79
f 75/138/67 83/150/67 82/149/86 74/137/80
f 76/139/81 84/151/87 83/150/67 75/138/67
f 77/141/82 85/153/88 84/152/87 76/140/81
f 78/142/83 86/154/89 85/153/88 77/141/82
f 79/144/71 87/156/71 86/155/89 78/143/83
f 80/145/84 88/157/90 87/156/71 79/144/71
f 73/135/79 81/147/85 88/158/90 80/146/84
f 82/160/86 90/109/68 89/108/69 81/159/85
f 83/150/67 91/166/67 90/165/68 82/149/86
f 84/151/87 92/167/66 91/166/67 83/150/67
f 85/162/88 93/108/65 92/109/66 84/161/87
f 86/163/89 94/113/72 93/108/65 85/162/88
f 87/156/71 95/169/71 94/168/72 86/155/89
f 88/157/90 96/170/70 95/169/71 87/156/71
f 81/159/85 89/108/69 96/113/70 88/164/90
f 90/109/68 98/118/75 97/117/76 89/108/69
f 91/166/67 99/172/67 98/171/75 90/165/68
f 92/167/66 100/173/74 99/172/67 91/166/67
f 93/108/65 101/123/73 100/122/74 92/109/66
f 94/113/72 102/124/78 101/123/73 93/108/65
f 95/169/71 103/175/71 102/174/78 94/168/72
f 96/170/70 104/176/77 103/175/71 95/169/71
f 89/108/69 97/117/76 104/128/77 96/113/70
f 98/178/75 106/140/81 105/141/82 97/177/76
f 99/172/67 107/184/67 106/183/81 98/171/75
f 100/173/74 108/185/80 107/184/67 99/172/67
f 101/180/73 109/135/79 108/136/80 100/179/74
f 102/181/78 110/146/84 109/135/79 101/180/73
f 103/175/71 111/187/71 110/186/84 102/174/78
f 104/176/77 112/188/83 111/187/71 103/175/71
f 97/177/76 105/141/82 112/142/83 104/182/77
f 106/140/81 114/190/87 113/189/88 105/141/82
f 107/184/67 115/192/67 114/191/87 106/183/81
f 108/185/80 116/193/86 115/192/67 107/184/67
f 109/135/79 117/195/85 116/194/86 108/136/80
f 110/146/84 118/196/90 117/195/85 109/135/79
f 111/187/71 119/198/71 118/197/90 110/186/84
f 112/188/83 120/199/89 119/198/71 111/187/71
f 105/141/82 113/189/88 120/200/89 112/142/83
f 114/160/87 58/109/66 57/108/65 113/159/88
f 115/192/67 59/111/67 58/110/66 114/191/87
f 116/193/86 60/112/68 59/111/67 115/192/67
f 117/162/85 61/108/69 60/109/68 116/161/86
f 118/163/90 62/113/70 61/108/69 117/162/85
f 119/198/71 63/115/71 62/114/70 118/197/90
f 120/199/89 64/116/72 63/115/71 119/198/71
f 113/159/88 57/108/65 64/113/72 120/164/89

