g belt1
v 0 0.00159859 0.01239189
v 0 0.001133137 0.01218954
v 0.0009857855 0.0009464286 0.01218569
v 0.001084921 0.001365109 0.01238532
v 0.001528854 0.0007367148 0.01212683
v 0.001670348 0.001016614 0.0123936
v 0.001650507 0.000478428 0.01203736
v 0.001918385 0.0004025532 0.01240055
v 0.001709877 0.0002905556 0.01204341
v 0.001899996 0.0001679628 0.01237363
v 0.001660276 1.301522E-05 0.01203414
v 0.001845164 -6.90938E-05 0.01234994
v 0.001442206 -0.0005406394 0.01193291
v 0.001632239 -0.0006995123 0.01225883
v 0.001070121 -0.0008177942 0.01163843
v 0.001140529 -0.001188608 0.01197268
v 0.0005313258 -0.001075487 0.01141806
v 0.0005957567 -0.001426431 0.01174415
v 0 -0.001276277 0.01137049
v 0 -0.001516662 0.01169256
v 0.0005204387 -0.001458268 0.01325513
v 0 -0.001605928 0.01251486
v 0 -0.00157772 0.01337748
v 0.0005785991 -0.001530625 0.01251028
v 0.001048347 -0.001260512 0.01309727
v 0.0005957567 -0.001426431 0.01174415
v 0 -0.001516662 0.01169256
v 0.001140529 -0.001188608 0.01197268
v 0.001092534 -0.001245348 0.01252584
v 0.001632239 -0.0006995123 0.01225883
v 0.001571969 -0.0007006901 0.01264895
v 0.001540411 -0.000713382 0.01301105
v 0.001845164 -6.90938E-05 0.01234994
v 0.001863344 -9.092493E-05 0.01270935
v 0.001808209 -9.103747E-05 0.01304834
v 0.001899996 0.0001679628 0.01237363
v 0.001891188 0.0001138665 0.01307908
v 0.001942384 0.0001395727 0.01274554
v 0.001918385 0.0004025532 0.01240055
v 0.001879494 0.0003378765 0.0131013
v 0.001984573 0.0003694447 0.01276803
v 0.001670348 0.001016614 0.0123936
v 0.001619806 0.001019358 0.01310183
v 0.001731451 0.001013581 0.01273868
v 0.001084921 0.001365109 0.01238532
v 0.001096431 0.001520606 0.01280899
v 0 0.00159859 0.01239189
v 0.001003518 0.001510271 0.01315991
v 0 0.001709365 0.01282236
v 0 0.00169335 0.01317878
v 0 0.001261556 0.01332609
v 0.0009857855 0.0009464286 0.01218569
v 0 0.001133137 0.01218954
v 0.0009324312 0.001047589 0.01330531
v 0.001528854 0.0007367148 0.01212683
v 0.001310772 0.0006131054 0.01326184
v 0.001650507 0.000478428 0.01203736
v 0.001436882 0.0003601669 0.01327709
v 0.001709877 0.0002905556 0.01204341
v 0.001518757 0.0001769518 0.01327494
v 0.001660276 1.301522E-05 0.01203414
v 0.001523277 -3.120371E-05 0.01325824
v 0.001442206 -0.0005406394 0.01193291
v 0.001298457 -0.0005454707 0.01325364
v 0.001070121 -0.0008177942 0.01163843
v 0.000983636 -0.0008116599 0.01334332
v 0.0005313258 -0.001075487 0.01141806
v 0.0005249525 -0.001026775 0.0135005
v 0 -0.001276277 0.01137049
v 0 -0.001175286 0.01362119
v 0.001003518 0.001510271 0.01315991
v 0 0.001261556 0.01332609
v 0 0.00169335 0.01317878
v 0.0009324312 0.001047589 0.01330531
v 0.001619806 0.001019358 0.01310183
v 0.001310772 0.0006131054 0.01326184
v 0.001879494 0.0003378765 0.0131013
v 0.001436882 0.0003601669 0.01327709
v 0.001891188 0.0001138665 0.01307908
v 0.001518757 0.0001769518 0.01327494
v 0.001808209 -9.103747E-05 0.01304834
v 0.001523277 -3.120371E-05 0.01325824
v 0.001540411 -0.000713382 0.01301105
v 0.001298457 -0.0005454707 0.01325364
v 0.001048347 -0.001260512 0.01309727
v 0.000983636 -0.0008116599 0.01334332
v 0.0005204387 -0.001458268 0.01325513
v 0.0005249525 -0.001026775 0.0135005
v 0 -0.00157772 0.01337748
v 0 -0.001175286 0.01362119
v 0 0.00159859 0.01239189
v -0.0009857855 0.0009464286 0.01218569
v 0 0.001133137 0.01218954
v -0.001084921 0.001365109 0.01238532
v -0.001528854 0.0007367148 0.01212683
v -0.001670348 0.001016614 0.0123936
v -0.001650507 0.000478428 0.01203736
v -0.001918385 0.0004025532 0.01240055
v -0.001709877 0.0002905556 0.01204341
v -0.001899996 0.0001679628 0.01237363
v -0.001660276 1.301522E-05 0.01203414
v -0.001845164 -6.90938E-05 0.01234994
v -0.001442206 -0.0005406394 0.01193291
v -0.001632239 -0.0006995123 0.01225883
v -0.001070121 -0.0008177942 0.01163843
v -0.001140529 -0.001188608 0.01197268
v -0.0005313258 -0.001075487 0.01141806
v -0.0005957567 -0.001426431 0.01174415
v 0 -0.001276277 0.01137049
v 0 -0.001516662 0.01169256
v -0.0005204387 -0.001458268 0.01325513
v 0 -0.00157772 0.01337748
v 0 -0.001605928 0.01251486
v -0.0005785991 -0.001530625 0.01251028
v -0.001048347 -0.001260512 0.01309727
v -0.0005957567 -0.001426431 0.01174415
v 0 -0.001516662 0.01169256
v -0.001140529 -0.001188608 0.01197268
v -0.001092534 -0.001245348 0.01252584
v -0.001632239 -0.0006995123 0.01225883
v -0.001571969 -0.0007006901 0.01264895
v -0.001540411 -0.000713382 0.01301105
v -0.001845164 -6.90938E-05 0.01234994
v -0.001863344 -9.092493E-05 0.01270935
v -0.001808209 -9.103747E-05 0.01304834
v -0.001899996 0.0001679628 0.01237363
v -0.001891188 0.0001138665 0.01307908
v -0.001942384 0.0001395727 0.01274554
v -0.001918385 0.0004025532 0.01240055
v -0.001879494 0.0003378765 0.0131013
v -0.001984573 0.0003694447 0.01276803
v -0.001619806 0.001019358 0.01310183
v -0.001731451 0.001013581 0.01273868
v -0.001670348 0.001016614 0.0123936
v -0.001918385 0.0004025532 0.01240055
v -0.001084921 0.001365109 0.01238532
v -0.001096431 0.001520606 0.01280899
v 0 0.00159859 0.01239189
v -0.001003518 0.001510271 0.01315991
v 0 0.001709365 0.01282236
v 0 0.00169335 0.01317878
v 0 0.001261556 0.01332609
v 0 0.001133137 0.01218954
v -0.0009857855 0.0009464286 0.01218569
v -0.0009324312 0.001047589 0.01330531
v -0.001528854 0.0007367148 0.01212683
v -0.001310772 0.0006131054 0.01326184
v -0.001650507 0.000478428 0.01203736
v -0.001436882 0.0003601669 0.01327709
v -0.001709877 0.0002905556 0.01204341
v -0.001518757 0.0001769518 0.01327494
v -0.001660276 1.301522E-05 0.01203414
v -0.001523277 -3.120371E-05 0.01325824
v -0.001442206 -0.0005406394 0.01193291
v -0.001298457 -0.0005454707 0.01325364
v -0.001070121 -0.0008177942 0.01163843
v -0.000983636 -0.0008116599 0.01334332
v -0.0005313258 -0.001075487 0.01141806
v -0.0005249525 -0.001026775 0.0135005
v 0 -0.001276277 0.01137049
v 0 -0.001175286 0.01362119
v -0.001003518 0.001510271 0.01315991
v 0 0.00169335 0.01317878
v 0 0.001261556 0.01332609
v -0.0009324312 0.001047589 0.01330531
v -0.001619806 0.001019358 0.01310183
v -0.001310772 0.0006131054 0.01326184
v -0.001879494 0.0003378765 0.0131013
v -0.001436882 0.0003601669 0.01327709
v -0.001891188 0.0001138665 0.01307908
v -0.001518757 0.0001769518 0.01327494
v -0.001808209 -9.103747E-05 0.01304834
v -0.001523277 -3.120371E-05 0.01325824
v -0.001540411 -0.000713382 0.01301105
v -0.001298457 -0.0005454707 0.01325364
v -0.001048347 -0.001260512 0.01309727
v -0.000983636 -0.0008116599 0.01334332
v -0.0005204387 -0.001458268 0.01325513
v -0.0005249525 -0.001026775 0.0135005
v 0 -0.00157772 0.01337748
v 0 -0.001175286 0.01362119
vt 0.9749162 0.6638194
vt 0.9594293 0.5712816
vt 0.7579317 0.5763831
vt 0.7679908 0.6575842
vt 0.64118 0.5909997
vt 0.6632249 0.6557952
vt 0.5835528 0.5789862
vt 0.5605794 0.6555511
vt 0.5454779 0.5825151
vt 0.5232181 0.650571
vt 0.4897374 0.5783372
vt 0.4826052 0.6469048
vt 0.3711919 0.5630591
vt 0.3682716 0.6405102
vt 0.2686208 0.5135359
vt 0.2532662 0.5981598
vt 0.14224 0.4828352
vt 0.1397066 0.564986
vt 0.02702382 0.4828355
vt 0.02201867 0.5541911
vt 0.1586894 0.8537368
vt 0.02658141 0.7245007
vt 0.05838656 0.9014386
vt 0.1433999 0.7106757
vt 0.2573223 0.8040255
vt 0.1397066 0.564986
vt 0.02201867 0.5541911
vt 0.2532662 0.5981598
vt 0.2517982 0.7004249
vt 0.3682716 0.6405102
vt 0.3695854 0.7078836
vt 0.3720642 0.7706649
vt 0.4826052 0.6469048
vt 0.4828732 0.7068998
vt 0.4866207 0.7634714
vt 0.5232181 0.650571
vt 0.5213416 0.7606369
vt 0.5213034 0.7098575
vt 0.5605794 0.6555511
vt 0.554214 0.7617928
vt 0.5562443 0.7113792
vt 0.6632249 0.6557952
vt 0.6619699 0.7700635
vt 0.6550853 0.7105505
vt 0.7679908 0.6575842
vt 0.7733067 0.7317914
vt 0.9749162 0.6638194
vt 0.7799464 0.7908879
vt 0.9721402 0.7536227
vt 0.9612715 0.826032
vt 0.8152164 0.02508396
vt 0.6709661 0.2668158
vt 0.8507943 0.2310539
vt 0.6444799 0.0628612
vt 0.5711116 0.3050583
vt 0.5437241 0.09441659
vt 0.5209791 0.3268802
vt 0.4921095 0.09778705
vt 0.4850149 0.3289289
vt 0.4556926 0.1021253
vt 0.4335158 0.3312289
vt 0.4177784 0.1065418
vt 0.3246858 0.3492017
vt 0.3152084 0.1066051
vt 0.2373366 0.3987469
vt 0.2406918 0.08680558
vt 0.1261435 0.432954
vt 0.1498299 0.0530349
vt 0.02201867 0.4357328
vt 0.05162311 0.02508372
vt 0.7799464 0.7908879
vt 0.9309716 0.9043659
vt 0.9612715 0.826032
vt 0.7433626 0.8643931
vt 0.6619699 0.7700635
vt 0.6243618 0.851743
vt 0.554214 0.7617928
vt 0.5706304 0.8413635
vt 0.5213416 0.7606369
vt 0.5328429 0.8316748
vt 0.4866207 0.7634714
vt 0.4914823 0.8280289
vt 0.3720642 0.7706649
vt 0.3820242 0.8411446
vt 0.2573223 0.8040255
vt 0.3038601 0.8752466
vt 0.1586894 0.8537368
vt 0.2049644 0.9255236
vt 0.05838656 0.9014386
vt 0.09770712 0.9749162
vt 0.9749162 0.6638194
vt 0.7579317 0.5763831
vt 0.9594293 0.5712816
vt 0.7679908 0.6575842
vt 0.64118 0.5909997
vt 0.6632249 0.6557952
vt 0.5835528 0.5789862
vt 0.5605794 0.6555511
vt 0.5454779 0.5825151
vt 0.5232181 0.650571
vt 0.4897374 0.5783372
vt 0.4826052 0.6469048
vt 0.3711919 0.5630591
vt 0.3682716 0.6405102
vt 0.2686208 0.5135359
vt 0.2532662 0.5981598
vt 0.14224 0.4828352
vt 0.1397066 0.564986
vt 0.02702382 0.4828355
vt 0.02201867 0.5541911
vt 0.1586894 0.8537368
vt 0.05838656 0.9014386
vt 0.02658141 0.7245007
vt 0.1433999 0.7106757
vt 0.2573223 0.8040255
vt 0.1397066 0.564986
vt 0.02201867 0.5541911
vt 0.2532662 0.5981598
vt 0.2517982 0.7004249
vt 0.3682716 0.6405102
vt 0.3695854 0.7078836
vt 0.3720642 0.7706649
vt 0.4826052 0.6469048
vt 0.4828732 0.7068998
vt 0.4866207 0.7634714
vt 0.5232181 0.650571
vt 0.5213416 0.7606369
vt 0.5213034 0.7098575
vt 0.5605794 0.6555511
vt 0.554214 0.7617928
vt 0.5562443 0.7113792
vt 0.6619699 0.7700635
vt 0.6550853 0.7105505
vt 0.6632249 0.6557952
vt 0.5605794 0.6555511
vt 0.7679908 0.6575842
vt 0.7733067 0.7317914
vt 0.9749162 0.6638194
vt 0.7799464 0.7908879
vt 0.9721402 0.7536227
vt 0.9612715 0.826032
vt 0.8152164 0.02508396
vt 0.8507943 0.2310539
vt 0.6709661 0.2668158
vt 0.6444799 0.0628612
vt 0.5711116 0.3050583
vt 0.5437241 0.09441659
vt 0.5209791 0.3268802
vt 0.4921095 0.09778705
vt 0.4850149 0.3289289
vt 0.4556926 0.1021253
vt 0.4335158 0.3312289
vt 0.4177784 0.1065418
vt 0.3246858 0.3492017
vt 0.3152084 0.1066051
vt 0.2373366 0.3987469
vt 0.2406918 0.08680558
vt 0.1261435 0.432954
vt 0.1498299 0.0530349
vt 0.02201867 0.4357328
vt 0.05162311 0.02508372
vt 0.7799464 0.7908879
vt 0.9612715 0.826032
vt 0.9309716 0.9043659
vt 0.7433626 0.8643931
vt 0.6619699 0.7700635
vt 0.6243618 0.851743
vt 0.554214 0.7617928
vt 0.5706304 0.8413635
vt 0.5213416 0.7606369
vt 0.5328429 0.8316748
vt 0.4866207 0.7634714
vt 0.4914823 0.8280289
vt 0.3720642 0.7706649
vt 0.3820242 0.8411446
vt 0.2573223 0.8040255
vt 0.3038601 0.8752466
vt 0.1586894 0.8537368
vt 0.2049644 0.9255236
vt 0.05838656 0.9014386
vt 0.09770712 0.9749162
vn 0 0.4066345 -0.9135909
vn 0 0.4066346 -0.9135909
vn 0.1448252 0.452592 -0.8798785
vn 0.1366658 0.4470025 -0.8840312
vn 0.5341728 0.4349695 -0.7248869
vn 0.4287303 0.461319 -0.7767722
vn 0.7809202 0.259919 -0.567984
vn 0.8007337 0.2180251 -0.5579342
vn 0.8471446 0.00978917 -0.5312722
vn 0.8464661 -0.02556858 -0.5318283
vn 0.8240373 -0.1709887 -0.5401161
vn 0.8243161 -0.1702981 -0.5399086
vn 0.7631611 -0.3015173 -0.5715528
vn 0.7734415 -0.2820032 -0.5676817
vn 0.6220304 -0.4542851 -0.6377329
vn 0.6244341 -0.4525185 -0.6366388
vn 0.3863693 -0.6215567 -0.6814588
vn 0.3927212 -0.61735 -0.6816517
vn 0 -0.7263576 -0.6873169
vn 0 -0.7263576 -0.6873169
vn 0.2837234 -0.9563241 0.07032309
vn 0 -0.9996929 -0.02477947
vn 0 -0.99761 0.06909639
vn 0.3055893 -0.9520076 -0.01722888
vn 0.5717167 -0.8182317 0.0603065
vn 0.2859988 -0.9524512 -0.1050776
vn 0 -0.9928511 -0.1193595
vn 0.5760999 -0.8167023 -0.03326074
vn 0.5962637 -0.8026503 0.01489951
vn 0.825312 -0.5631955 0.04087663
vn 0.8352566 -0.5469168 0.05682009
vn 0.8284602 -0.5555161 0.07110134
vn 0.9451771 -0.3255481 -0.02566774
vn 0.9333849 -0.3564836 0.04137942
vn 0.913066 -0.3902876 0.1182625
vn 0.9737955 -0.1899473 -0.1250686
vn 0.9576383 -0.2259525 0.178534
vn 0.9775327 -0.2089886 0.02745348
vn 0.9783773 0.1379645 -0.1540894
vn 0.9549822 0.1384456 0.2623776
vn 0.9893296 0.1316115 0.06249308
vn 0.7549475 0.6277611 -0.1896585
vn 0.7638118 0.6002128 0.2373524
vn 0.8099864 0.5859336 0.0245733
vn 0.385751 0.8862856 -0.2563084
vn 0.413131 0.9088191 -0.05805654
vn 0 0.9539866 -0.2998495
vn 0.3747367 0.9199521 0.1151542
vn 0 0.9929945 -0.1181608
vn 0 0.9981668 0.06052276
vn 0 -0.9953432 0.0963948
vn -0.4140097 -0.9102703 0.002004402
vn 0 -0.9953432 0.0963948
vn -0.3830631 -0.9235801 0.01620058
vn -0.7879277 -0.5956563 -0.1560878
vn -0.7595977 -0.6341066 -0.1446375
vn -0.906652 -0.3753418 -0.1926153
vn -0.9059332 -0.3767875 -0.1931739
vn -0.9769131 -0.1413982 -0.1601476
vn -0.978943 -0.1286197 -0.1585163
vn -0.9619566 0.24986 -0.1104966
vn -0.962491 0.2476863 -0.1107363
vn -0.761524 0.6445221 -0.0683562
vn -0.7734927 0.6299103 -0.07015663
vn -0.4954169 0.8680639 -0.03204674
vn -0.5049888 0.8624852 -0.03324845
vn -0.363359 0.9311915 -0.02920014
vn -0.3628477 0.9313894 -0.02924428
vn 0 0.9993868 -0.03501671
vn 0 0.9993868 -0.03501671
vn 0.1662105 0.2648775 0.9498495
vn -1.977384E-07 0.3051142 0.9523158
vn -1.967003E-07 0.3051142 0.9523157
vn 0.2041099 0.2462899 0.94746
vn 0.3061264 0.1841111 0.934018
vn 0.315929 0.174395 0.9326174
vn 0.3855513 0.08792467 0.9184875
vn 0.3666812 0.1137301 0.923369
vn 0.4588897 -0.07987326 0.8848957
vn 0.4497077 -0.05045101 0.8917497
vn 0.5223106 -0.2285504 0.8215572
vn 0.5237322 -0.2302215 0.8201845
vn 0.5413896 -0.3122804 0.7806269
vn 0.540678 -0.3140731 0.7804008
vn 0.4679405 -0.3928081 0.7916651
vn 0.4847116 -0.3813904 0.7871442
vn 0.3679038 -0.453212 0.8119395
vn 0.3791285 -0.4470187 0.8102072
vn -3.661998E-07 -0.5072181 0.8618177
vn -3.535972E-07 -0.5072181 0.8618177
vn 0 0.4066345 -0.9135909
vn -0.1448256 0.4525919 -0.8798785
vn 0 0.4066346 -0.9135909
vn -0.1366661 0.4470024 -0.8840312
vn -0.5341728 0.4349695 -0.7248868
vn -0.4287305 0.4613189 -0.7767721
vn -0.7809202 0.2599191 -0.567984
vn -0.8007338 0.2180253 -0.5579341
vn -0.8471448 0.009789336 -0.531272
vn -0.8464663 -0.0255684 -0.5318281
vn -0.8240371 -0.1709887 -0.5401164
vn -0.8243161 -0.1702981 -0.5399089
vn -0.7631609 -0.3015173 -0.5715529
vn -0.7734413 -0.2820033 -0.5676818
vn -0.6220306 -0.454285 -0.6377328
vn -0.6244344 -0.4525183 -0.6366388
vn -0.3863695 -0.6215567 -0.6814587
vn -0.3927215 -0.61735 -0.6816517
vn 0 -0.7263576 -0.6873169
vn 0 -0.7263576 -0.6873169
vn -0.2837233 -0.9563241 0.07032309
vn 0 -0.99761 0.06909639
vn 0 -0.9996929 -0.02477947
vn -0.3055893 -0.9520076 -0.01722888
vn -0.5717167 -0.8182317 0.06030648
vn -0.2859989 -0.9524512 -0.1050776
vn 0 -0.9928511 -0.1193595
vn -0.5760999 -0.8167022 -0.03326071
vn -0.5962638 -0.8026503 0.01489952
vn -0.825312 -0.5631955 0.04087666
vn -0.8352565 -0.546917 0.05682014
vn -0.8284602 -0.5555163 0.07110139
vn -0.9451771 -0.3255478 -0.02566776
vn -0.9333848 -0.3564836 0.04137947
vn -0.9130659 -0.390288 0.1182626
vn -0.9737957 -0.1899472 -0.1250686
vn -0.9576382 -0.2259527 0.1785341
vn -0.9775326 -0.2089886 0.0274536
vn -0.9783774 0.1379643 -0.1540893
vn -0.9549822 0.1384454 0.2623775
vn -0.9893296 0.1316113 0.06249313
vn -0.763812 0.6002126 0.2373523
vn -0.8099865 0.5859334 0.02457328
vn -0.7549475 0.6277609 -0.1896584
vn -0.9783774 0.1379643 -0.1540893
vn -0.3857511 0.8862856 -0.2563083
vn -0.4131311 0.9088191 -0.05805656
vn 0 0.9539866 -0.2998495
vn -0.3747368 0.9199521 0.1151541
vn 0 0.9929945 -0.1181608
vn 0 0.9981668 0.06052276
vn 0 -0.9953432 0.0963948
vn 0 -0.9953432 0.0963948
vn 0.4140097 -0.9102703 0.002004431
vn 0.383063 -0.9235801 0.01620061
vn 0.7879277 -0.5956563 -0.1560878
vn 0.7595977 -0.6341068 -0.1446374
vn 0.906652 -0.375342 -0.1926153
vn 0.9059332 -0.3767877 -0.1931739
vn 0.9769131 -0.1413985 -0.1601476
vn 0.978943 -0.12862 -0.1585162
vn 0.9619567 0.2498598 -0.1104966
vn 0.962491 0.2476861 -0.1107363
vn 0.761524 0.6445221 -0.0683562
vn 0.7734926 0.6299103 -0.07015661
vn 0.4954169 0.868064 -0.03204674
vn 0.5049888 0.8624852 -0.03324846
vn 0.363359 0.9311915 -0.02920014
vn 0.3628477 0.9313894 -0.02924428
vn 0 0.9993868 -0.03501671
vn 0 0.9993868 -0.03501671
vn -0.1662107 0.2648775 0.9498494
vn -1.967003E-07 0.3051142 0.9523157
vn -1.977384E-07 0.3051142 0.9523158
vn -0.2041101 0.2462899 0.94746
vn -0.3061264 0.1841111 0.934018
vn -0.315929 0.174395 0.9326175
vn -0.385551 0.08792475 0.9184877
vn -0.3666811 0.1137302 0.9233691
vn -0.4588899 -0.0798732 0.8848956
vn -0.4497078 -0.05045094 0.8917497
vn -0.5223104 -0.2285505 0.8215573
vn -0.523732 -0.2302216 0.8201846
vn -0.541389 -0.3122805 0.7806272
vn -0.5406774 -0.3140733 0.7804011
vn -0.4679405 -0.3928082 0.7916651
vn -0.4847116 -0.3813904 0.7871442
vn -0.3679042 -0.4532119 0.8119393
vn -0.3791288 -0.4470188 0.8102072
vn -3.661998E-07 -0.5072181 0.8618177
vn -3.535972E-07 -0.5072181 0.8618177
g belt1_0
f 3/3/3 2/2/2 1/1/1
f 4/4/4 3/3/3 1/1/1
f 5/5/5 3/3/3 4/4/4
f 6/6/6 5/5/5 4/4/4
f 7/7/7 5/5/5 6/6/6
f 8/8/8 7/7/7 6/6/6
f 9/9/9 7/7/7 8/8/8
f 10/10/10 9/9/9 8/8/8
f 11/11/11 9/9/9 10/10/10
f 12/12/12 11/11/11 10/10/10
f 13/13/13 11/11/11 12/12/12
f 14/14/14 13/13/13 12/12/12
f 15/15/15 13/13/13 14/14/14
f 16/16/16 15/15/15 14/14/14
f 17/17/17 15/15/15 16/16/16
f 18/18/18 17/17/17 16/16/16
f 19/19/19 17/17/17 18/18/18
f 20/20/20 19/19/19 18/18/18
f 23/23/23 22/22/22 21/21/21
f 22/22/22 24/24/24 21/21/21
f 21/21/21 24/24/24 25/25/25
f 24/24/24 22/22/22 26/26/26
f 22/22/22 27/27/27 26/26/26
f 24/24/24 26/26/26 28/28/28
f 29/29/29 24/24/24 28/28/28
f 24/24/24 29/29/29 25/25/25
f 29/29/29 28/28/28 30/30/30
f 25/25/25 29/29/29 31/31/31
f 31/31/31 29/29/29 30/30/30
f 32/32/32 25/25/25 31/31/31
f 31/31/31 30/30/30 33/33/33
f 32/32/32 31/31/31 34/34/34
f 34/34/34 31/31/31 33/33/33
f 35/35/35 32/32/32 34/34/34
f 34/34/34 33/33/33 36/36/36
f 35/35/35 34/34/34 37/37/37
f 38/38/38 34/34/34 36/36/36
f 34/34/34 38/38/38 37/37/37
f 38/38/38 36/36/36 39/39/39
f 37/37/37 38/38/38 40/40/40
f 41/41/41 38/38/38 39/39/39
f 38/38/38 41/41/41 40/40/40
f 41/41/41 39/39/39 42/42/42
f 40/40/40 41/41/41 43/43/43
f 44/44/44 41/41/41 42/42/42
f 41/41/41 44/44/44 43/43/43
f 44/44/44 42/42/42 45/45/45
f 43/43/43 44/44/44 46/46/46
f 46/46/46 44/44/44 45/45/45
f 46/46/46 45/45/45 47/47/47
f 48/48/48 43/43/43 46/46/46
f 49/49/49 46/46/46 47/47/47
f 48/48/48 46/46/46 49/49/49
f 50/50/50 48/48/48 49/49/49
f 53/53/53 52/52/52 51/51/51
f 52/52/52 54/54/54 51/51/51
f 52/52/52 55/55/55 54/54/54
f 55/55/55 56/56/56 54/54/54
f 55/55/55 57/57/57 56/56/56
f 57/57/57 58/58/58 56/56/56
f 57/57/57 59/59/59 58/58/58
f 59/59/59 60/60/60 58/58/58
f 59/59/59 61/61/61 60/60/60
f 61/61/61 62/62/62 60/60/60
f 61/61/61 63/63/63 62/62/62
f 63/63/63 64/64/64 62/62/62
f 63/63/63 65/65/65 64/64/64
f 65/65/65 66/66/66 64/64/64
f 65/65/65 67/67/67 66/66/66
f 67/67/67 68/68/68 66/66/66
f 67/67/67 69/69/69 68/68/68
f 69/69/69 70/70/70 68/68/68
f 73/73/73 72/72/72 71/71/71
f 72/72/72 74/74/74 71/71/71
f 71/71/71 74/74/74 75/75/75
f 74/74/74 76/76/76 75/75/75
f 75/75/75 76/76/76 77/77/77
f 76/76/76 78/78/78 77/77/77
f 77/77/77 78/78/78 79/79/79
f 78/78/78 80/80/80 79/79/79
f 79/79/79 80/80/80 81/81/81
f 80/80/80 82/82/82 81/81/81
f 81/81/81 82/82/82 83/83/83
f 82/82/82 84/84/84 83/83/83
f 83/83/83 84/84/84 85/85/85
f 84/84/84 86/86/86 85/85/85
f 85/85/85 86/86/86 87/87/87
f 86/86/86 88/88/88 87/87/87
f 87/87/87 88/88/88 89/89/89
f 88/88/88 90/90/90 89/89/89
f 93/93/93 92/92/92 91/91/91
f 92/92/92 94/94/94 91/91/91
f 92/92/92 95/95/95 94/94/94
f 95/95/95 96/96/96 94/94/94
f 95/95/95 97/97/97 96/96/96
f 97/97/97 98/98/98 96/96/96
f 97/97/97 99/99/99 98/98/98
f 99/99/99 100/100/100 98/98/98
f 99/99/99 101/101/101 100/100/100
f 101/101/101 102/102/102 100/100/100
f 101/101/101 103/103/103 102/102/102
f 103/103/103 104/104/104 102/102/102
f 103/103/103 105/105/105 104/104/104
f 105/105/105 106/106/106 104/104/104
f 105/105/105 107/107/107 106/106/106
f 107/107/107 108/108/108 106/106/106
f 107/107/107 109/109/109 108/108/108
f 109/109/109 110/110/110 108/108/108
f 113/113/113 112/112/112 111/111/111
f 114/114/114 113/113/113 111/111/111
f 114/114/114 111/111/111 115/115/115
f 113/113/113 114/114/114 116/116/116
f 117/117/117 113/113/113 116/116/116
f 116/116/116 114/114/114 118/118/118
f 114/114/114 119/119/119 118/118/118
f 119/119/119 114/114/114 115/115/115
f 118/118/118 119/119/119 120/120/120
f 119/119/119 115/115/115 121/121/121
f 119/119/119 121/121/121 120/120/120
f 115/115/115 122/122/122 121/121/121
f 120/120/120 121/121/121 123/123/123
f 121/121/121 122/122/122 124/124/124
f 121/121/121 124/124/124 123/123/123
f 122/122/122 125/125/125 124/124/124
f 123/123/123 124/124/124 126/126/126
f 124/124/124 125/125/125 127/127/127
f 124/124/124 128/128/128 126/126/126
f 128/128/128 124/124/124 127/127/127
f 126/126/126 128/128/128 129/129/129
f 128/128/128 127/127/127 130/130/130
f 128/128/128 131/131/131 129/129/129
f 131/131/131 128/128/128 130/130/130
f 131/131/131 130/130/130 132/132/132
f 133/133/133 131/131/131 132/132/132
f 131/131/131 133/133/133 134/134/134
f 135/135/135 131/131/131 134/134/134
f 134/134/134 133/133/133 136/136/136
f 133/133/133 132/132/132 137/137/137
f 133/133/133 137/137/137 136/136/136
f 136/136/136 137/137/137 138/138/138
f 132/132/132 139/139/139 137/137/137
f 137/137/137 140/140/140 138/138/138
f 137/137/137 139/139/139 140/140/140
f 139/139/139 141/141/141 140/140/140
f 144/144/144 143/143/143 142/142/142
f 145/145/145 144/144/144 142/142/142
f 146/146/146 144/144/144 145/145/145
f 147/147/147 146/146/146 145/145/145
f 148/148/148 146/146/146 147/147/147
f 149/149/149 148/148/148 147/147/147
f 150/150/150 148/148/148 149/149/149
f 151/151/151 150/150/150 149/149/149
f 152/152/152 150/150/150 151/151/151
f 153/153/153 152/152/152 151/151/151
f 154/154/154 152/152/152 153/153/153
f 155/155/155 154/154/154 153/153/153
f 156/156/156 154/154/154 155/155/155
f 157/157/157 156/156/156 155/155/155
f 158/158/158 156/156/156 157/157/157
f 159/159/159 158/158/158 157/157/157
f 160/160/160 158/158/158 159/159/159
f 161/161/161 160/160/160 159/159/159
f 164/164/164 163/163/163 162/162/162
f 165/165/165 164/164/164 162/162/162
f 165/165/165 162/162/162 166/166/166
f 167/167/167 165/165/165 166/166/166
f 167/167/167 166/166/166 168/168/168
f 169/169/169 167/167/167 168/168/168
f 169/169/169 168/168/168 170/170/170
f 171/171/171 169/169/169 170/170/170
f 171/171/171 170/170/170 172/172/172
f 173/173/173 171/171/171 172/172/172
f 173/173/173 172/172/172 174/174/174
f 175/175/175 173/173/173 174/174/174
f 175/175/175 174/174/174 176/176/176
f 177/177/177 175/175/175 176/176/176
f 177/177/177 176/176/176 178/178/178
f 179/179/179 177/177/177 178/178/178
f 179/179/179 178/178/178 180/180/180
f 181/181/181 179/179/179 180/180/180
