# ProBuilder 4.4.0
# https://unity3d.com/unity/features/worldbuilding/probuilder
# 3/19/2021 10:34:48 AM

mtllib ./Ring.mtl
o Ring

g Cylinder
v -0.13 -0.02499998 0
v -0.13 0.02500002 0
v -0.09192388 -0.02499998 0.09192388
v -0.09192388 0.02500002 0.09192388
v 0 -0.02499998 0.13
v 0 0.02500002 0.13
v 0.09192388 -0.02499998 0.09192388
v 0.09192388 0.02500002 0.09192388
v 0.13 -0.02499998 -1.136496E-08
v 0.13 0.02500002 -1.136496E-08
v 0.09192389 -0.02499998 -0.09192387
v 0.09192389 0.02500002 -0.09192387
v 0 -0.02499998 -0.13
v 0 0.02500002 -0.13
v -0.09192386 -0.02499998 -0.09192389
v -0.09192386 0.02500002 -0.09192389
v 0.07201606 0.01966415 0.07201606
v 0 0.01966415 0.1018461
v 0.1018461 0.01966415 -8.903668E-09
v -0.07201606 0.01966415 0.07201606
v -0.1018461 0.01966415 0
v -0.07201605 0.01966415 -0.07201607
v 0 0.01966415 -0.1018461
v 0.07201607 0.01966415 -0.07201605
v 0 -0.01966411 0.1018461
v 0.07201606 -0.01966411 0.07201606
v -0.07201606 -0.01966411 0.07201606
v 0.1018461 -0.01966411 -8.903668E-09
v 0.07201607 -0.01966411 -0.07201605
v 0 -0.01966411 -0.1018461
v -0.07201605 -0.01966411 -0.07201607
v -0.1018461 -0.01966411 0

vt -0.04974885 -0.02499998
vt -0.04974885 0.02500002
vt 0.04974884 -0.02499998
vt 0.04974884 0.02500002
vt -0.0935985 0.09361728
vt -0.001956579 0.1323671
vt -0.07333414 0.07335722
vt -0.001538977 0.103715
vt -0.1323815 2.732273E-05
vt -0.09497138 0.09222425
vt -0.1037265 2.732526E-05
vt -0.07441816 0.0722573
vt 0.001956578 0.1323671
vt 0.0935985 0.09361728
vt 0.001538977 0.103715
vt 0.07333414 0.07335722
vt 0.09497138 0.09222425
vt 0.1323815 2.733407E-05
vt 0.07441816 0.0722573
vt 0.1037265 2.733415E-05
vt 0.09497137 -0.09222426
vt 0.07441814 -0.0722573
vt 0.09359848 -0.09361729
vt 0.001956578 -0.1323671
vt 0.07333413 -0.07335723
vt 0.001538977 -0.103715
vt -0.001956578 -0.1323671
vt -0.09359851 -0.09361727
vt -0.001538977 -0.103715
vt -0.07333415 -0.07335722
vt -0.0949714 -0.09222424
vt -0.07441816 -0.07225729
vt 0.03897482 0.01966415
vt -0.0389748 0.01966415
vt 0.03897482 -0.01966411
vt -0.0389748 -0.01966411

vn -1 0 -4.83867E-08
vn -0.7071068 0 0.7071068
vn 0 0 1
vn 0.7071068 0 0.7071068
vn 1 0 0
vn 0.7071068 0 -0.7071068
vn 3.22578E-08 0 -1
vn -0.7071067 0 -0.7071068
vn -0.0769024 0.9796004 -0.1856588
vn -0.1856588 0.9796004 -0.07690239
vn 0.0769024 0.9796004 -0.1856588
vn 0.1856588 0.9796004 -0.0769024
vn 0.1856588 0.9796004 0.0769024
vn 0.07690238 0.9796004 0.1856588
vn -0.0769024 0.9796004 0.1856588
vn -0.1856588 0.9796004 0.07690239
vn -0.0769024 -0.9796004 -0.1856588
vn 0.0769024 -0.9796004 -0.1856588
vn -0.1856589 -0.9796004 -0.0769024
vn -0.1856588 -0.9796004 0.07690238
vn -0.0769024 -0.9796004 0.1856588
vn 0.07690238 -0.9796004 0.1856588
vn 0.1856588 -0.9796004 0.07690241
vn 0.1856588 -0.9796004 -0.0769024
vn 0.3826833 0 -0.9238796
vn 0.9238796 0 -0.3826833
vn 0.9238795 0 0.3826835
vn -0.3826833 0 -0.9238796
vn 0.3826834 0 0.9238796
vn -0.3826834 0 0.9238796
vn -0.9238796 0 0.3826834
vn -0.9238796 0 -0.3826833

usemtl Gold
f 3/3/2 4/4/2 2/2/1 1/1/1
f 5/3/3 6/4/3 4/2/2 3/1/2
f 7/3/4 8/4/4 6/2/3 5/1/3
f 9/3/5 10/4/5 8/2/4 7/1/4
f 11/3/6 12/4/6 10/2/5 9/1/5
f 13/3/7 14/4/7 12/2/6 11/1/6
f 15/3/8 16/4/8 14/2/7 13/1/7
f 1/3/1 2/4/1 16/2/8 15/1/8
f 17/7/9 18/8/9 6/6/9 8/5/9
f 19/11/10 17/12/10 8/10/10 10/9/10
f 18/15/11 20/16/11 4/14/11 6/13/11
f 20/19/12 21/20/12 2/18/12 4/17/12
f 21/20/13 22/22/13 16/21/13 2/18/13
f 22/25/14 23/26/14 14/24/14 16/23/14
f 23/29/15 24/30/15 12/28/15 14/27/15
f 24/32/16 19/11/16 10/9/16 12/31/16
f 25/15/17 26/16/17 7/14/17 5/13/17
f 27/7/18 25/8/18 5/6/18 3/5/18
f 26/19/19 28/20/19 9/18/19 7/17/19
f 28/20/20 29/22/20 11/21/20 9/18/20
f 29/25/21 30/26/21 13/24/21 11/23/21
f 30/29/22 31/30/22 15/28/22 13/27/22
f 31/32/23 32/11/23 1/9/23 15/31/23
f 32/11/24 27/12/24 3/10/24 1/9/24
f 25/36/25 27/35/25 20/33/25 18/34/25
f 27/36/26 32/35/26 21/33/26 20/34/26
f 32/36/27 31/35/27 22/33/27 21/34/27
f 18/33/28 17/34/28 26/36/28 25/35/28
f 23/33/29 22/34/29 31/36/29 30/35/29
f 24/33/30 23/34/30 30/36/30 29/35/30
f 29/36/31 28/35/31 19/33/31 24/34/31
f 17/33/32 19/34/32 28/36/32 26/35/32

