# ProBuilder 4.4.0
# https://unity3d.com/unity/features/worldbuilding/probuilder
# 3/8/2021 7:31:14 PM

mtllib ./RunestoneMesh.mtl
o RunestoneMesh

g RunestoneMesh
v 0.6596536 -0.1295195 0.3446203
v -0.3403463 -0.1295195 0.4681199
v 0.6596536 0.1590941 0.3446203
v -0.3403463 0.1590941 0.4681199
v -0.4313809 -0.1295195 -0.5318801
v -0.4313809 0.1590941 -0.5318801
v 0.6596536 -0.1295195 -0.4083806
v 0.6596536 0.1590941 -0.4083806

vt 0.6124403 -0.1295195
vt -0.3951569 -0.1295195
vt 0.6124403 0.1590941
vt -0.3951569 0.1590941
vt 0.4353364 -0.1295195
vt -0.5687987 -0.1295195
vt 0.4353364 0.1590941
vt -0.5687987 0.1590941
vt 0.4884675 -0.1295195
vt -0.6095344 -0.1295195
vt 0.4884675 0.1590941
vt -0.6095344 0.1590941
vt 0.4083806 -0.1295195
vt -0.3446203 -0.1295195
vt 0.4083806 0.1590941
vt -0.3446203 0.1590941
vt -0.6596536 0.3446203
vt 0.3403463 0.4681199
vt -0.6596536 -0.4083806
vt 0.4313809 -0.5318801
vt 0.6596536 -0.4083806
vt -0.4313809 -0.5318801
vt 0.6596536 0.3446203
vt -0.3403463 0.4681199

vn 0.1225684 0 0.9924601
vn -0.995882 0 0.09065965
vn 0.1124766 0 -0.9936544
vn 1 0 0
vn 0 1 0
vn 0 -1 0

usemtl DefaultCraftingItem
f 3/3/1 4/4/1 2/2/1 1/1/1
f 4/7/2 6/8/2 5/6/2 2/5/2
f 6/11/3 8/12/3 7/10/3 5/9/3
f 8/15/4 3/16/4 1/14/4 7/13/4
f 8/19/5 6/20/5 4/18/5 3/17/5
f 1/23/6 2/24/6 5/22/6 7/21/6

