# ProBuilder 4.4.0
# https://unity3d.com/unity/features/worldbuilding/probuilder
# 3/8/2021 11:41:39 AM

mtllib ./ShardMesh.mtl
o ShardMesh

g ShardMesh
v -0.4297828 0.04582608 0.07242387
v -0.3083096 0.2646802 0.130053
v 0.2929014 0.6461926 -0.377878
v -0.2157475 -0.6461926 0.3995371
v 0.06825164 0.2646802 0.3764303
v 0.4297828 0.03720972 0.2348238
v 0.4147529 -0.1902608 -0.1531598
v 0.03819179 -0.1902608 -0.3995371

vt 0 1.150809E-09
vt 0.3 0
vt 0.15 0.5634714
vt -0.1868431 -0.004850682
vt -0.1002781 0.1428933
vt 0.06318039 -0.4720183
vt -0.1245264 0.138403
vt 0.1754737 0.138403
vt 0.02547367 -0.4799294
vt -0.03788257 0.1951927
vt 0.2207067 0.04310188
vt -0.2220635 -0.413833
vt -0.02483312 0.2170201
vt 0.2068051 0.02637977
vt -0.3019443 -0.3557313
vt 0.2267203 -0.009634418
vt -0.01312705 -0.1898379
vt -0.264622 0.3946151
vt -0.2348567 -0.05323881
vt 0.2005808 0.1242389
vt 0.3012033 -0.3959845

vn -1.078779 0.7806098 -0.6905687
vn -0.9603758 0.236072 1.127807
vn -0.3707018 1.338495 0.5665779
vn -0.806536 0.2827391 1.232704
vn 0.8897524 0.9500396 0.7454969
vn 0.4824505 -0.1145098 1.415673
vn 1.481479 0.1731289 -0.1588936
vn 1.087572 -0.909007 0.49081
vn 0.8127517 -0.2153266 -1.242203
vn 0.4037067 -1.306256 -0.6170223
vn -0.9573528 0.3202533 -1.109465
vn -1.101639 -0.693166 -0.7455952

usemtl DefaultCraftingItem
f 1/1/1 2/2/1 3/3/1
f 4/6/2 2/5/2 1/4/2
f 2/1/3 5/2/3 3/3/3
f 4/9/4 5/8/4 2/7/4
f 5/1/5 6/2/5 3/3/5
f 4/12/6 6/11/6 5/10/6
f 6/1/7 7/2/7 3/3/7
f 4/15/8 7/14/8 6/13/8
f 7/1/9 8/2/9 3/3/9
f 4/18/10 8/17/10 7/16/10
f 8/1/11 1/2/11 3/3/11
f 4/21/12 1/20/12 8/19/12

